<svg xmlns="http://www.w3.org/2000/svg" viewBox="0 0 32 32" width="32" height="32">
  <defs>
    <radialGradient id="potatoGrad" cx="38%" cy="38%" r="60%">
      <stop offset="0%" stop-color="#EED596"/>
      <stop offset="45%" stop-color="#D4A34F"/>
      <stop offset="100%" stop-color="#8C5C21"/>
    </radialGradient>
  </defs>
  <!-- Potato Body -->
  <ellipse cx="16" cy="16.5" rx="13.5" ry="11" transform="rotate(-8 16 16.5)" fill="url(#potatoGrad)" stroke="#4A2F11" stroke-width="2"/>
  <!-- Cute Sprout -->
  <path d="M14 7 C 13.5 3, 9.5 2.5, 8 4 C 10.5 6, 12 7, 13 8.5 Z" fill="#48BB78" stroke="#1C4532" stroke-width="1"/>
  <path d="M14.5 7.5 C 16 3.5, 20 3, 21.5 5 C 19 6.5, 17 7.5, 15.5 9 Z" fill="#38A169" stroke="#1C4532" stroke-width="1"/>
  <!-- Potato Dimples/Spots -->
  <circle cx="10.5" cy="12.5" r="1.3" fill="#6B4114" opacity="0.85"/>
  <circle cx="21" cy="13.5" r="1.1" fill="#6B4114" opacity="0.85"/>
  <circle cx="16" cy="20.5" r="1.5" fill="#6B4114" opacity="0.85"/>
  <circle cx="22.5" cy="19" r="1" fill="#6B4114" opacity="0.75"/>
  <circle cx="8.5" cy="18" r="1" fill="#6B4114" opacity="0.75"/>
  <!-- Cute blush/highlight -->
  <ellipse cx="12" cy="15.5" rx="2" ry="1.2" fill="#F6AD55" opacity="0.45"/>
  <ellipse cx="20" cy="16" rx="2" ry="1.2" fill="#F6AD55" opacity="0.45"/>
</svg>
